<svg width="512" height="512" viewBox="0 0 512 512" xmlns="http://www.w3.org/2000/svg">
  <!-- Background circle with gradient -->
  <defs>
    <radialGradient id="bgGradient" cx="50%" cy="30%" r="70%">
      <stop offset="0%" style="stop-color:#87CEEB;stop-opacity:1" />
      <stop offset="100%" style="stop-color:#4682B4;stop-opacity:1" />
    </radialGradient>
    <radialGradient id="centerGradient" cx="50%" cy="50%" r="50%">
      <stop offset="0%" style="stop-color:#E6F3FF;stop-opacity:0.9" />
      <stop offset="100%" style="stop-color:#B8E0FF;stop-opacity:0.7" />
    </radialGradient>
    <filter id="glow">
      <feGaussianBlur stdDeviation="3" result="coloredBlur"/>
      <feMerge>
        <feMergeNode in="coloredBlur"/>
        <feMergeNode in="SourceGraphic"/>
      </feMerge>
    </filter>
  </defs>

  <!-- Main background -->
  <circle cx="256" cy="256" r="240" fill="url(#bgGradient)" stroke="#2F5F8F" stroke-width="4"/>

  <!-- Breathing ripples -->
  <circle cx="256" cy="256" r="180" fill="none" stroke="#E6F3FF" stroke-width="2" opacity="0.6"/>
  <circle cx="256" cy="256" r="150" fill="none" stroke="#E6F3FF" stroke-width="2" opacity="0.4"/>
  <circle cx="256" cy="256" r="120" fill="none" stroke="#E6F3FF" stroke-width="2" opacity="0.3"/>

  <!-- Center breathing circle -->
  <circle cx="256" cy="256" r="80" fill="url(#centerGradient)" stroke="#5BA3D9" stroke-width="3" filter="url(#glow)"/>

  <!-- Subtle breathing indicator dots -->
  <circle cx="256" cy="176" r="4" fill="#FFFFFF" opacity="0.8">
    <animate attributeName="opacity" values="0.3;0.8;0.3" dur="4s" repeatCount="indefinite"/>
  </circle>
  <circle cx="336" cy="256" r="4" fill="#FFFFFF" opacity="0.6">
    <animate attributeName="opacity" values="0.3;0.8;0.3" dur="4s" begin="1s" repeatCount="indefinite"/>
  </circle>
  <circle cx="256" cy="336" r="4" fill="#FFFFFF" opacity="0.4">
    <animate attributeName="opacity" values="0.3;0.8;0.3" dur="4s" begin="2s" repeatCount="indefinite"/>
  </circle>
  <circle cx="176" cy="256" r="4" fill="#FFFFFF" opacity="0.6">
    <animate attributeName="opacity" values="0.3;0.8;0.3" dur="4s" begin="3s" repeatCount="indefinite"/>
  </circle>

  <!-- Central breath symbol -->
  <g transform="translate(256,256)">
    <!-- Stylized lungs/breath symbol -->
    <path d="M -20,-10 Q -30,-20 -25,-30 Q -20,-35 -10,-30 Q 0,-25 0,-15 Q 0,-5 -10,0 Q -20,5 -20,-10 Z"
          fill="#FFFFFF" opacity="0.9" transform="scale(0.8)"/>
    <path d="M 20,-10 Q 30,-20 25,-30 Q 20,-35 10,-30 Q 0,-25 0,-15 Q 0,-5 10,0 Q 20,5 20,-10 Z"
          fill="#FFFFFF" opacity="0.9" transform="scale(0.8)"/>

    <!-- Central connecting element -->
    <ellipse cx="0" cy="-8" rx="8" ry="12" fill="#FFFFFF" opacity="0.8" transform="scale(0.8)"/>
  </g>
</svg>